<svg width="328" height="184" viewBox="0 0 328 184" fill="none" xmlns="http://www.w3.org/2000/svg">
<path fill-rule="evenodd" clip-rule="evenodd" d="M169.585 146.05C165.455 150.887 160.396 154.864 154.483 157.68C127.559 170.506 93.1203 154.429 77.5627 121.771C62.0052 89.1124 71.2198 52.24 98.1443 39.4139C121.067 28.4942 149.436 38.5245 166.963 61.9008C171.093 57.0639 176.152 53.0875 182.065 50.2707C208.989 37.4447 243.428 53.5219 258.985 86.1802C274.543 118.839 265.328 155.711 238.404 168.537C215.481 179.457 187.112 169.427 169.585 146.05Z" fill="#FFE6E6"/>
<rect x="128.586" y="37.1893" width="31" height="14" rx="4" transform="rotate(-36.0018 128.586 37.1893)" fill="#BFABDB"/>
<rect x="101.133" y="66.6562" width="107" height="13" rx="5" transform="rotate(-36.0018 101.133 66.6562)" fill="#BFABDB"/>
<mask id="mask0_2664_21933" style="mask-type:alpha" maskUnits="userSpaceOnUse" x="70" y="35" width="197" height="138">
<path fill-rule="evenodd" clip-rule="evenodd" d="M169.585 146.05C165.455 150.887 160.396 154.864 154.483 157.68C127.559 170.506 93.1203 154.429 77.5627 121.771C62.0052 89.1124 71.2198 52.24 98.1443 39.4139C121.067 28.4942 149.436 38.5245 166.963 61.9008C171.093 57.0639 176.152 53.0875 182.065 50.2707C208.989 37.4447 243.428 53.5219 258.985 86.1802C274.543 118.839 265.328 155.711 238.404 168.537C215.481 179.457 187.112 169.427 169.585 146.05Z" fill="#FFD7DD"/>
</mask>
<g mask="url(#mask0_2664_21933)">
<path d="M209.516 83.208L116.165 88.7812C114.271 88.8943 112.957 90.7146 113.445 92.5478L134.38 171.171C134.742 172.532 136.001 173.457 137.407 173.397L202.38 170.612C203.88 170.548 205.102 169.384 205.239 167.888L212.682 86.4758C212.849 84.647 211.349 83.0986 209.516 83.208Z" fill="#BFABDB"/>
<path fill-rule="evenodd" clip-rule="evenodd" d="M128.418 97.1323C130.83 96.534 133.27 98.0043 133.869 100.417L149.869 164.917C150.467 167.329 148.997 169.769 146.585 170.368C144.172 170.966 141.732 169.496 141.133 167.083L125.133 102.583C124.535 100.171 126.005 97.7307 128.418 97.1323Z" fill="#8E6BC0"/>
<path fill-rule="evenodd" clip-rule="evenodd" d="M152.859 95.0459C155.319 94.6918 157.601 96.3989 157.955 98.8588L167.455 164.859C167.809 167.319 166.102 169.6 163.642 169.954C161.182 170.308 158.901 168.601 158.546 166.141L149.046 100.141C148.692 97.6812 150.4 95.4 152.859 95.0459Z" fill="#8E6BC0"/>
<path fill-rule="evenodd" clip-rule="evenodd" d="M179.365 94.0021C181.849 93.9274 183.923 95.8806 183.998 98.3648L185.998 164.865C186.073 167.349 184.119 169.423 181.635 169.498C179.151 169.573 177.077 167.619 177.002 165.135L175.002 98.6353C174.927 96.1512 176.881 94.0768 179.365 94.0021Z" fill="#8E6BC0"/>
<path fill-rule="evenodd" clip-rule="evenodd" d="M202.723 92.016C205.285 92.2297 207.193 94.5291 206.984 97.1519L201.295 168.622C201.086 171.245 198.84 173.198 196.277 172.984C193.715 172.77 191.807 170.471 192.016 167.848L197.705 96.378C197.914 93.7552 200.16 91.8023 202.723 92.016Z" fill="#8E6BC0"/>
<path d="M113.5 89L211.5 83.5" stroke="#1F2937" stroke-width="3" stroke-linecap="round"/>
</g>
<path d="M184.763 89.7265L160.544 54.9977C159.953 54.1494 160.106 52.99 160.897 52.3239L177.643 38.222C178.175 37.7735 178.903 37.6343 179.563 37.8545L184.968 39.6559C185.611 39.8705 186.32 39.7441 186.85 39.3203L209.457 21.2346C210.312 20.5504 211.559 20.6814 212.253 21.5285L234.732 48.9535C235.433 49.8077 235.308 51.0676 234.454 51.7679L187.672 90.1291C186.77 90.8683 185.43 90.6828 184.763 89.7265Z" fill="#D74545"/>
<path d="M160.5 52.5L177.5 38.5C178 38.1667 179.2 37.6 180 38C180.8 38.4 184 39.1667 185.5 39.5C185.667 39.5 186.7 39 189.5 37C192.3 35 204.333 25.5 210 21" stroke="#111827" stroke-width="2" stroke-linecap="round"/>
<ellipse cx="59.9987" cy="92.5" rx="8" ry="11.5" transform="rotate(-11.7749 59.9987 92.5)" fill="#FFE6E6"/>
<ellipse cx="75.1784" cy="117.891" rx="8" ry="11.5" transform="rotate(-11.7749 75.1784 117.891)" fill="#FFE6E6"/>
<ellipse cx="275.5" cy="119.275" rx="5.89937" ry="13.3523" transform="rotate(-11.7749 275.5 119.275)" fill="#FFE6E6"/>
<path d="M104.5 65L185.5 5.5C187.167 5.66667 190.8 6.8 192 10C193.5 14 194 15 191 17.5C188.6 19.5 179.667 26 175.5 29" stroke="#111827" stroke-width="2" stroke-linecap="round"/>
<path d="M133.002 43.0001L130.502 40.0001C130.002 38.8334 129.502 36.2001 131.502 35.0001C133.502 33.8001 145.669 24.8334 151.502 20.5001C152.169 20.1667 153.802 19.8001 155.002 21.0001C156.202 22.2001 157.502 24.1667 158.002 25" stroke="#111827" stroke-width="2" stroke-linecap="round"/>
</svg>
